<svg fill="#fff" xmlns="http://www.w3.org/2000/svg" version="1.1" xmlns:xlink="http://www.w3.org/1999/xlink" xmlns:svgjs="http://svgjs.com/svgjs" width="512" height="512" x="0" y="0" viewBox="0 0 16.933 16.933" style="enable-background:new 0 0 512 512" xml:space="preserve"><g><path d="M8.467.529A7.942 7.942 0 0 0 .529 8.466a7.942 7.942 0 0 0 7.938 7.938 7.942 7.942 0 0 0 7.17-11.34l-.787.787a.795.795 0 0 1-.563.235h-.22c.313.731.486 1.536.486 2.38a6.09 6.09 0 0 1-6.086 6.086c-3.358 0-6.086-2.728-6.086-6.086a6.09 6.09 0 0 1 8.467-5.6v-.22c0-.211.084-.414.234-.563l.788-.788A7.9 7.9 0 0 0 8.467.53zm5.02 0a.265.265 0 0 0-.18.078l-1.852 1.851a.265.265 0 0 0-.078.188v1.743L7.883 7.883a.83.83 0 0 0 0 1.168c.32.32.847.319 1.167-.002l3.493-3.493h1.744a.265.265 0 0 0 .188-.078l1.851-1.852a.265.265 0 0 0-.187-.45h-1.215l.211-.212a.829.829 0 0 0 .002-1.166c-.16-.16-.373-.24-.585-.24s-.424.08-.584.24l-.21.21V.792a.265.265 0 0 0-.271-.264zm-5.02 3.703c-2.335 0-4.235 1.9-4.235 4.234s1.9 4.233 4.235 4.233a4.236 4.236 0 0 0 4.232-4.233c0-.673-.162-1.309-.442-1.875l-1.45 1.45a2.384 2.384 0 0 1-2.34 2.806 2.384 2.384 0 0 1-2.381-2.38 2.384 2.384 0 0 1 2.38-2.381c.146 0 .288.015.426.04l1.45-1.45a4.2 4.2 0 0 0-1.875-.444z"></path></g></svg>
