<svg fill="#fff" xmlns="http://www.w3.org/2000/svg" version="1.1" xmlns:xlink="http://www.w3.org/1999/xlink" xmlns:svgjs="http://svgjs.com/svgjs" width="512" height="512" x="0" y="0" viewBox="0 0 60 60" style="enable-background:new 0 0 512 512" xml:space="preserve"><g><g fill-rule="evenodd" clip-rule="evenodd"><path d="M15.625 32.5c0-1.036.84-1.875 1.875-1.875H30a1.875 1.875 0 0 1 0 3.75H17.5a1.875 1.875 0 0 1-1.875-1.875zM15.625 42.5c0-1.036.84-1.875 1.875-1.875H40a1.875 1.875 0 0 1 0 3.75H17.5a1.875 1.875 0 0 1-1.875-1.875zM38.125 12.5A9.365 9.365 0 0 1 47.5 3.125a1.875 1.875 0 0 1 0 3.75 5.615 5.615 0 0 0-5.625 5.625c0 3.115 2.51 5.625 5.625 5.625s5.625-2.51 5.625-5.625c0-.691-.115-1.31-.324-1.848A1.875 1.875 0 0 1 56.3 9.298a8.84 8.84 0 0 1 .576 3.202c0 5.186-4.19 9.375-9.375 9.375s-9.375-4.19-9.375-9.375z"></path><path d="M55 23.125c1.036 0 1.875.84 1.875 1.875v12.5c0 6.435-1.276 11.427-4.612 14.763-3.336 3.337-8.328 4.612-14.763 4.612h-15c-6.435 0-11.427-1.276-14.763-4.612C4.4 48.927 3.125 43.935 3.125 37.5v-.075a1.875 1.875 0 0 1 3.75 0v.075c0 6.065 1.224 9.823 3.513 12.112 2.29 2.288 6.047 3.513 12.112 3.513h15c6.065 0 9.823-1.224 12.112-3.513 2.288-2.29 3.513-6.047 3.513-12.112V25c0-1.036.84-1.875 1.875-1.875zM7.737 7.737C11.073 4.4 16.065 3.125 22.5 3.125H35a1.875 1.875 0 0 1 0 3.75H22.5c-6.065 0-9.823 1.224-12.112 3.513C8.1 12.678 6.875 16.435 6.875 22.5v5a1.875 1.875 0 0 1-3.75 0v-5c0-6.435 1.275-11.427 4.612-14.763z"></path></g></g></svg>
