<svg xmlns="http://www.w3.org/2000/svg" version="1.1" xmlns:xlink="http://www.w3.org/1999/xlink" xmlns:svgjs="http://svgjs.com/svgjs" width="512" height="512" x="0" y="0" viewBox="0 0 24 24" style="enable-background:new 0 0 512 512" xml:space="preserve" class="">
    <g>
        <path d="M12 18c-.2 0-.5-.1-.6-.2l-3-2.5c-.4-.4-.5-1-.1-1.4s1-.5 1.4-.1l2.4 2 2.4-2c.4-.4 1.1-.3 1.4.1.4.4.3 1.1-.1 1.4l-3 2.5c-.3.1-.6.2-.8.2z" fill="#fff" data-original="#fff"></path>
        <path d="M12 18c-.6 0-1-.4-1-1v-6c0-.6.4-1 1-1s1 .4 1 1v6c0 .5-.4 1-1 1z" fill="#fff" data-original="#fff"></path>
        <path d="M19.3 22H4.7C3.2 22 2 20.8 2 19.3V7c0-.6.4-1 1-1h18c.6 0 1 .4 1 1v12.3c0 1.5-1.2 2.7-2.7 2.7zM4 8v11.3c0 .4.3.7.7.7h14.6c.4 0 .7-.3.7-.8V8z" fill="#fff" data-original="#fff"></path>
        <path d="M21 8H3c-.4 0-.7-.2-.9-.6s-.1-.7.1-1l2.7-3.6c.4-.5 1-.8 1.6-.8h11c.6 0 1.2.3 1.6.8l2.7 3.6c.2.3.3.7.1 1-.2.4-.5.6-.9.6zM5 6h14l-1.5-2h-11z" fill="#fff" data-original="#fff"></path>
    </g>
</svg>