<svg width="24" height="24" viewBox="0 0 24 24" fill="#fff" xmlns="http://www.w3.org/2000/svg">
    <path d="M4.14072 23.2217L12.0891 14.7386L20.5723 22.687C21.352 23.4176 22.5802 23.3776 23.3108 22.5979C24.0414 21.8181 24.0015 20.5899 23.2217 19.8593L14.7386 11.9109L22.687 3.42773C23.4176 2.64798 23.3776 1.41974 22.5979 0.68914C21.8181 -0.0414565 20.5899 -0.00148602 19.8593 0.778261L11.9109 9.26139L3.42775 1.31299C2.648 0.582393 1.41975 0.622363 0.689158 1.40211C-0.0414385 2.18186 -0.00146802 3.4101 0.778279 4.1407L9.26141 12.0891L1.31301 20.5722C0.582411 21.352 0.622381 22.5802 1.40213 23.3108C2.18188 24.0414 3.41012 24.0014 4.14072 23.2217Z" fill="white"/>
</svg>
